<?xml version="1.0" encoding="UTF-8"?> <svg xmlns="http://www.w3.org/2000/svg" width="339" height="29" viewBox="0 0 339 29" fill="none"> <path fill-rule="evenodd" clip-rule="evenodd" d="M11.1264 10.5217L17.7782 11.2475C24.8733 12.0135 28.5418 14.8354 28.5418 19.5922C28.5418 25.1152 23.4623 28.2193 14.1902 28.2193C4.67645 28.2193 0 25.1152 0 18.8264H6.49044C6.49044 21.5678 9.31237 23.0996 14.3516 23.0996C19.4311 23.0996 21.6886 22.1722 21.6886 19.7938C21.6886 18.0201 20.076 17.2541 17.1735 16.9316L10.8039 16.2464C4.15234 15.5206 0.806304 12.8195 0.806304 8.1836C0.806304 3.22521 6.16797 0 13.7872 0C22.2127 0 27.2114 3.22521 27.2114 8.54635H20.8823C20.6001 6.20825 18.3023 4.99892 13.908 4.99892C9.51402 4.99892 7.49839 6.04714 7.49839 7.98196C7.49839 9.67512 8.78826 10.28 11.1264 10.5217ZM199.349 22.6561C193.907 22.6561 190.722 19.5117 190.722 14.1097C190.722 8.70776 193.907 5.56335 199.349 5.56335C203.582 5.56335 206.082 7.21598 206.969 10.4815H213.903C213.217 4.23294 207.291 4.3869e-05 199.349 4.3869e-05C189.876 4.3869e-05 183.708 5.56335 183.708 14.1097C183.708 22.6963 189.835 28.2194 199.349 28.2194C207.613 28.2194 213.378 23.8251 213.983 17.0927H207.049C206.646 20.6001 203.824 22.6561 199.349 22.6561ZM161.417 16.6494L166.373 3.66857H166.575L171.508 16.6494H161.417ZM161.213 0.685271L150.973 27.5339H157.262L159.494 21.6886H173.423L175.645 27.5339H182.619L172.339 0.685271H161.213ZM60.7118 0.685315H53.6167L43.1756 11.2878H40.0312V0.685315H33.6615V27.5339H40.0312V16.3673H43.1756L53.4956 27.5339H61.76L48.4397 13.1559L60.7118 0.685315ZM78.6914 0.685315H85.0611V22.3739H99.5737V27.5339H78.6914V0.685315ZM110.217 0.685315H103.847V27.5339H124.729V22.3739H110.217V0.685315ZM135.372 5.84541H151.417V0.685382H129.002V27.534H135.372V17.6572H148.675V12.4972H135.372V5.84541ZM71.8384 27.534H65.4688V0.685383H71.8384V27.534ZM252.926 0.685384H269.177V6.85336H252.926V0.685384ZM252.926 6.85336L252.926 21.366H246.193V6.85334L252.926 6.85336ZM269.177 6.85336L275.91 6.85334V21.366H269.177V6.85336ZM296.832 13.7065H288.165V5.84537H296.832C299.816 5.84537 301.67 7.37742 301.67 9.79607C301.67 12.215 299.816 13.7065 296.832 13.7065ZM308.281 9.79607C308.281 4.19274 303.927 0.685338 296.832 0.685338H281.755V27.534H288.165V18.8665H294.452L301.67 27.534H309.45L301.229 17.6605C305.682 16.5895 308.281 13.7827 308.281 9.79607ZM332.187 0.685315L324.568 12.618L316.949 0.685315H309.531L321.061 18.3427V27.5339H327.43V18.3427L339 0.685315H332.187ZM226.198 5.84541H216.12V0.685382H242.686V5.84541H232.567V27.534H226.198V5.84541ZM269.177 27.534H252.926V21.366H269.177V27.534Z" fill="#181818"></path> </svg> 